<mxfile host="app.diagrams.net" agent="Mozilla/5.0 (Windows NT 10.0; Win64; x64) AppleWebKit/537.36 (KHTML, like Gecko) Chrome/129.0.0.0 Safari/537.36" version="24.8.0">
  <diagram id="C5RBs43oDa-KdzZeNtuy" name="Page-1">
    <mxGraphModel dx="1134" dy="656" grid="1" gridSize="10" guides="1" tooltips="1" connect="1" arrows="1" fold="1" page="1" pageScale="1" pageWidth="827" pageHeight="1169" math="0" shadow="0">
      <root>
        <mxCell id="WIyWlLk6GJQsqaUBKTNV-0" />
        <mxCell id="WIyWlLk6GJQsqaUBKTNV-1" parent="WIyWlLk6GJQsqaUBKTNV-0" />
        <mxCell id="44aghnPCqdPW82EE8l1T-20" value="" style="edgeStyle=orthogonalEdgeStyle;rounded=0;orthogonalLoop=1;jettySize=auto;html=1;" edge="1" parent="WIyWlLk6GJQsqaUBKTNV-1" source="WIyWlLk6GJQsqaUBKTNV-3" target="WIyWlLk6GJQsqaUBKTNV-6">
          <mxGeometry relative="1" as="geometry" />
        </mxCell>
        <mxCell id="WIyWlLk6GJQsqaUBKTNV-3" value="Proses sebelumnya" style="rounded=1;whiteSpace=wrap;html=1;fontSize=12;glass=0;strokeWidth=1;shadow=0;" parent="WIyWlLk6GJQsqaUBKTNV-1" vertex="1">
          <mxGeometry x="160" y="80" width="120" height="40" as="geometry" />
        </mxCell>
        <mxCell id="44aghnPCqdPW82EE8l1T-17" value="Yes" style="edgeStyle=orthogonalEdgeStyle;rounded=0;orthogonalLoop=1;jettySize=auto;html=1;verticalAlign=bottom;horizontal=1;" edge="1" parent="WIyWlLk6GJQsqaUBKTNV-1" source="WIyWlLk6GJQsqaUBKTNV-6" target="44aghnPCqdPW82EE8l1T-16">
          <mxGeometry relative="1" as="geometry" />
        </mxCell>
        <mxCell id="44aghnPCqdPW82EE8l1T-19" value="No" style="edgeStyle=orthogonalEdgeStyle;rounded=0;orthogonalLoop=1;jettySize=auto;html=1;verticalAlign=middle;labelPosition=right;verticalLabelPosition=middle;align=left;" edge="1" parent="WIyWlLk6GJQsqaUBKTNV-1" source="WIyWlLk6GJQsqaUBKTNV-6" target="WIyWlLk6GJQsqaUBKTNV-10">
          <mxGeometry relative="1" as="geometry" />
        </mxCell>
        <mxCell id="WIyWlLk6GJQsqaUBKTNV-6" value="Apakah&lt;div&gt;suhu &amp;lt; 15 C&lt;/div&gt;" style="rhombus;whiteSpace=wrap;html=1;shadow=0;fontFamily=Helvetica;fontSize=12;align=center;strokeWidth=1;spacing=6;spacingTop=-4;" parent="WIyWlLk6GJQsqaUBKTNV-1" vertex="1">
          <mxGeometry x="170" y="170" width="100" height="80" as="geometry" />
        </mxCell>
        <mxCell id="44aghnPCqdPW82EE8l1T-7" value="No" style="edgeStyle=orthogonalEdgeStyle;rounded=0;orthogonalLoop=1;jettySize=auto;html=1;labelPosition=right;verticalLabelPosition=middle;align=left;verticalAlign=middle;" edge="1" parent="WIyWlLk6GJQsqaUBKTNV-1" source="WIyWlLk6GJQsqaUBKTNV-10" target="44aghnPCqdPW82EE8l1T-3">
          <mxGeometry relative="1" as="geometry">
            <mxPoint as="offset" />
          </mxGeometry>
        </mxCell>
        <mxCell id="44aghnPCqdPW82EE8l1T-14" value="Yes" style="edgeStyle=orthogonalEdgeStyle;rounded=0;orthogonalLoop=1;jettySize=auto;html=1;labelPosition=center;verticalLabelPosition=top;align=center;verticalAlign=bottom;" edge="1" parent="WIyWlLk6GJQsqaUBKTNV-1" source="WIyWlLk6GJQsqaUBKTNV-10" target="44aghnPCqdPW82EE8l1T-13">
          <mxGeometry relative="1" as="geometry" />
        </mxCell>
        <mxCell id="WIyWlLk6GJQsqaUBKTNV-10" value="Apakah&lt;div&gt;suhu &amp;lt;= 35 C&lt;/div&gt;" style="rhombus;whiteSpace=wrap;html=1;shadow=0;fontFamily=Helvetica;fontSize=12;align=center;strokeWidth=1;spacing=6;spacingTop=-4;" parent="WIyWlLk6GJQsqaUBKTNV-1" vertex="1">
          <mxGeometry x="170" y="290" width="100" height="80" as="geometry" />
        </mxCell>
        <mxCell id="44aghnPCqdPW82EE8l1T-6" value="" style="edgeStyle=orthogonalEdgeStyle;rounded=0;orthogonalLoop=1;jettySize=auto;html=1;entryX=0.5;entryY=0;entryDx=0;entryDy=0;" edge="1" parent="WIyWlLk6GJQsqaUBKTNV-1" source="44aghnPCqdPW82EE8l1T-3" target="44aghnPCqdPW82EE8l1T-24">
          <mxGeometry relative="1" as="geometry">
            <mxPoint x="220" y="530" as="targetPoint" />
          </mxGeometry>
        </mxCell>
        <mxCell id="44aghnPCqdPW82EE8l1T-3" value="Nyalakan LED&lt;div&gt;&#39;Suhu Terlalu Tinggi&#39;&lt;/div&gt;&lt;div&gt;&lt;span style=&quot;background-color: initial;&quot;&gt;dan bunyikan Buzzer&lt;/span&gt;&lt;/div&gt;" style="shape=parallelogram;perimeter=parallelogramPerimeter;whiteSpace=wrap;html=1;fixedSize=1;" vertex="1" parent="WIyWlLk6GJQsqaUBKTNV-1">
          <mxGeometry x="140" y="410" width="160" height="60" as="geometry" />
        </mxCell>
        <mxCell id="44aghnPCqdPW82EE8l1T-15" style="edgeStyle=orthogonalEdgeStyle;rounded=0;orthogonalLoop=1;jettySize=auto;html=1;entryX=0.5;entryY=0;entryDx=0;entryDy=0;" edge="1" parent="WIyWlLk6GJQsqaUBKTNV-1" source="44aghnPCqdPW82EE8l1T-13" target="44aghnPCqdPW82EE8l1T-24">
          <mxGeometry relative="1" as="geometry">
            <mxPoint x="280" y="560" as="targetPoint" />
            <Array as="points">
              <mxPoint x="385" y="520" />
              <mxPoint x="220" y="520" />
            </Array>
          </mxGeometry>
        </mxCell>
        <mxCell id="44aghnPCqdPW82EE8l1T-13" value="Nyalakan LED&lt;div&gt;&#39;Suhu Sesuai&#39;&lt;/div&gt;" style="shape=parallelogram;perimeter=parallelogramPerimeter;whiteSpace=wrap;html=1;fixedSize=1;" vertex="1" parent="WIyWlLk6GJQsqaUBKTNV-1">
          <mxGeometry x="318.25" y="300" width="134.5" height="60" as="geometry" />
        </mxCell>
        <mxCell id="44aghnPCqdPW82EE8l1T-21" style="edgeStyle=orthogonalEdgeStyle;rounded=0;orthogonalLoop=1;jettySize=auto;html=1;entryX=0.5;entryY=0;entryDx=0;entryDy=0;" edge="1" parent="WIyWlLk6GJQsqaUBKTNV-1" source="44aghnPCqdPW82EE8l1T-16" target="44aghnPCqdPW82EE8l1T-24">
          <mxGeometry relative="1" as="geometry">
            <mxPoint x="280" y="560" as="targetPoint" />
            <Array as="points">
              <mxPoint x="530" y="210" />
              <mxPoint x="530" y="520" />
              <mxPoint x="220" y="520" />
            </Array>
          </mxGeometry>
        </mxCell>
        <mxCell id="44aghnPCqdPW82EE8l1T-16" value="Nyalakan LED&lt;div&gt;&#39;Suhu Terlalu Rendah&#39;&lt;/div&gt;&lt;div&gt;dan bunyikan Buzzer&lt;/div&gt;" style="shape=parallelogram;perimeter=parallelogramPerimeter;whiteSpace=wrap;html=1;fixedSize=1;" vertex="1" parent="WIyWlLk6GJQsqaUBKTNV-1">
          <mxGeometry x="318.25" y="175" width="145.5" height="70" as="geometry" />
        </mxCell>
        <mxCell id="44aghnPCqdPW82EE8l1T-26" style="edgeStyle=orthogonalEdgeStyle;rounded=0;orthogonalLoop=1;jettySize=auto;html=1;" edge="1" parent="WIyWlLk6GJQsqaUBKTNV-1" source="44aghnPCqdPW82EE8l1T-24">
          <mxGeometry relative="1" as="geometry">
            <mxPoint x="220" y="700" as="targetPoint" />
          </mxGeometry>
        </mxCell>
        <mxCell id="44aghnPCqdPW82EE8l1T-28" style="edgeStyle=orthogonalEdgeStyle;rounded=0;orthogonalLoop=1;jettySize=auto;html=1;" edge="1" parent="WIyWlLk6GJQsqaUBKTNV-1" source="44aghnPCqdPW82EE8l1T-24">
          <mxGeometry relative="1" as="geometry">
            <mxPoint x="340" y="615" as="targetPoint" />
          </mxGeometry>
        </mxCell>
        <mxCell id="44aghnPCqdPW82EE8l1T-24" value="Apakah&lt;div&gt;&lt;span style=&quot;background-color: initial;&quot;&gt;humiditas &amp;lt; 50%?&lt;/span&gt;&lt;/div&gt;" style="rhombus;whiteSpace=wrap;html=1;" vertex="1" parent="WIyWlLk6GJQsqaUBKTNV-1">
          <mxGeometry x="150" y="560" width="140" height="110" as="geometry" />
        </mxCell>
      </root>
    </mxGraphModel>
  </diagram>
</mxfile>
